<svg xmlns:dc="http://purl.org/dc/elements/1.1/" xmlns:cc="http://creativecommons.org/ns#" xmlns:rdf="http://www.w3.org/1999/02/22-rdf-syntax-ns#" xmlns:svg="http://www.w3.org/2000/svg" xmlns="http://www.w3.org/2000/svg" xmlns:sodipodi="http://sodipodi.sourceforge.net/DTD/sodipodi-0.dtd" xmlns:inkscape="http://www.inkscape.org/namespaces/inkscape" fill="#000000" version="1.1" x="0px" y="0px" viewBox="0 0 100 100"><path style="font-size:medium;font-style:normal;font-variant:normal;font-weight:normal;font-stretch:normal;text-indent:0;text-align:start;text-decoration:none;line-height:normal;letter-spacing:normal;word-spacing:normal;text-transform:none;direction:ltr;block-progression:tb;writing-mode:lr-tb;text-anchor:start;baseline-shift:baseline;opacity:1;color:#000000;fill:#000000;fill-opacity:1;stroke:none;stroke-width:3.99999927999999990;marker:none;visibility:visible;display:inline;overflow:visible;enable-background:accumulate;font-family:Sans;-inkscape-font-specification:Sans" d="M 19.8125 24 A 2.0021961 2.0021961 0 1 0 20 28 L 80 28 A 2.0001996 2.0001996 0 1 0 80 24 L 20 24 A 2.0001996 2.0001996 0 0 0 19.8125 24 z M 19.8125 48 A 2.0021961 2.0021961 0 1 0 20 52 L 80 52 A 2.0001996 2.0001996 0 1 0 80 48 L 20 48 A 2.0001996 2.0001996 0 0 0 19.8125 48 z M 19.8125 72 A 2.0021961 2.0021961 0 1 0 20 76 L 80 76 A 2.0001996 2.0001996 0 1 0 80 72 L 20 72 A 2.0001996 2.0001996 0 0 0 19.8125 72 z "/></svg>