<svg xmlns:dc="http://purl.org/dc/elements/1.1/" xmlns:cc="http://creativecommons.org/ns#" xmlns:rdf="http://www.w3.org/1999/02/22-rdf-syntax-ns#" xmlns:svg="http://www.w3.org/2000/svg" xmlns="http://www.w3.org/2000/svg" xmlns:sodipodi="http://sodipodi.sourceforge.net/DTD/sodipodi-0.dtd" xmlns:inkscape="http://www.inkscape.org/namespaces/inkscape" version="1.1" x="0px" y="0px" viewBox="0 0 100 100"><g transform="translate(0,-952.36218)"><path style="text-indent:0;text-transform:none;direction:ltr;block-progression:tb;baseline-shift:baseline;color:#000000;enable-background:accumulate;" d="m 71.2132,981.14898 c -0.78106,-0.78108 -2.04737,-0.78104 -2.82842,0 L 50,999.5338 31.61522,981.14898 c -0.78105,-0.78106 -2.04735,-0.78107 -2.82842,0 -0.78108,0.78106 -0.78104,2.04737 0,2.82842 l 18.38477,18.3848 -18.38477,18.3848 c -0.78106,0.781 -0.78107,2.0473 0,2.8284 0.78106,0.7811 2.04737,0.781 2.82842,0 L 50,1005.1906 l 18.38478,18.3848 c 0.78105,0.781 2.04735,0.7811 2.82842,0 0.78108,-0.7811 0.78104,-2.0474 0,-2.8284 L 52.82843,1002.3622 71.2132,983.9774 c 0.78106,-0.78105 0.78107,-2.04735 0,-2.82842 z" fill="#000000" fill-opacity="1" stroke="none" marker="none" visibility="visible" display="inline" overflow="visible"/></g></svg>