<svg xmlns:dc="http://purl.org/dc/elements/1.1/" xmlns:cc="http://creativecommons.org/ns#" xmlns:rdf="http://www.w3.org/1999/02/22-rdf-syntax-ns#" xmlns:svg="http://www.w3.org/2000/svg" xmlns="http://www.w3.org/2000/svg" xmlns:sodipodi="http://sodipodi.sourceforge.net/DTD/sodipodi-0.dtd" xmlns:inkscape="http://www.inkscape.org/namespaces/inkscape" version="1.1" x="0px" y="0px" viewBox="0 0 100 100"><g transform="translate(0,-952.36218)"><path style="font-size:medium;font-style:normal;font-variant:normal;font-weight:normal;font-stretch:normal;text-indent:0;text-align:start;text-decoration:none;line-height:normal;letter-spacing:normal;word-spacing:normal;text-transform:none;direction:ltr;block-progression:tb;writing-mode:lr-tb;text-anchor:start;baseline-shift:baseline;opacity:1;color:#000000;fill:#000000;fill-opacity:1;stroke:none;stroke-width:2.00000023999999990;marker:none;visibility:visible;display:inline;overflow:visible;enable-background:accumulate;font-family:Sans;-inkscape-font-specification:Sans" d="M 49.875 9.96875 A 1.0001001 1.0001001 0 0 0 49 11 L 49 49 L 11 49 A 1.0001001 1.0001001 0 0 0 10.8125 49 A 1.0043849 1.0043849 0 0 0 11 51 L 49 51 L 49 89 A 1.0001001 1.0001001 0 1 0 51 89 L 51 51 L 89 51 A 1.0001001 1.0001001 0 1 0 89 49 L 51 49 L 51 11 A 1.0001001 1.0001001 0 0 0 49.875 9.96875 z " transform="translate(0,952.36218)"/></g></svg>